<!-- Generated by IcoMoon.io -->
<svg version="1.1" xmlns="http://www.w3.org/2000/svg" width="48" height="32" viewBox="0 0 48 32">
<title>airplane</title>
<path d="M1.22 3.282c-1.294-0.788-0.734-2.782 0.78-2.782h43.786c0 0 0 0 0.001 0 0.828 0 1.5 0.672 1.5 1.5 0 0.338-0.112 0.651-0.301 0.902l0.003-0.004-19.8 26.514c-0.276 0.367-0.712 0.602-1.201 0.602-0.555 0-1.039-0.301-1.299-0.749l-0.004-0.007-10.272-17.958-13.19-8.020zM42.794 3.5h-35.436l8.942 5.434c0.218 0.134 0.395 0.315 0.52 0.531l0.004 0.007 9.328 16.312 16.642-22.284z"></path>
<path d="M20.22 19.42l2.046 2.198-7.244 6.736c-0.267 0.249-0.627 0.402-1.022 0.402-0.828 0-1.5-0.672-1.5-1.5 0-0.001 0-0.001 0-0.002v0-17.254h3v13.812l4.72-4.392z"></path>
<path d="M44.888 0.558l0.822 2.884-29.3 8.346-0.82-2.884z"></path>
</svg>
