<!-- Generated by IcoMoon.io -->
<svg version="1.1" xmlns="http://www.w3.org/2000/svg" width="32" height="32" viewBox="0 0 32 32">
<title>edit</title>
<path d="M10.353 23.529c-0.403 0-0.807-0.134-1.21-0.538s-0.538-1.076-0.403-1.613c0-0.134 1.479-4.706 1.748-5.782 0.134-0.269 0.269-0.538 0.403-0.807 0 0 10.487-10.487 10.891-10.891 0.269-0.269 1.479-1.345 3.227-1.345 1.076 0 2.151 0.403 3.092 1.345 0.941 1.076 1.479 2.151 1.479 3.227v0c0 1.21-0.538 2.286-1.479 3.227-0.672 0.672-7.395 7.395-9.95 9.815l-0.941 0.941c-0.134 0.134-0.403 0.269-0.672 0.403-0.807 0.269-5.513 1.748-5.647 1.748-0.134 0.269-0.403 0.269-0.538 0.269zM12.37 16.269c-0.269 0.941-1.076 3.765-1.479 5.109 1.21-0.403 4.168-1.345 4.975-1.613l0.807-0.807c2.555-2.555 9.277-9.143 9.95-9.815s0.941-1.21 0.941-1.882c0-0.538-0.269-1.21-0.941-1.748-0.538-0.538-1.076-0.807-1.613-0.807-0.941 0-1.748 0.672-1.882 0.807-0.269 0.269-9.815 9.815-10.756 10.756zM12.37 16.134c0 0 0 0 0 0s0 0 0 0z"></path>
<path d="M21.782 29.311h-14.655c-2.824 0-4.303-1.613-4.303-4.303v-16.807c0-2.824 1.613-4.303 4.303-4.303h10.084c0.538 0 1.076 0.403 1.076 1.076s-0.403 1.076-1.076 1.076h-10.084c-1.748 0-2.42 0.672-2.42 2.42v16.807c0 1.748 0.672 2.42 2.42 2.42h14.521c1.748 0 2.42-0.672 2.42-2.42v-9.008c0-0.538 0.403-1.076 1.076-1.076s1.076 0.403 1.076 1.076v9.008c-0.134 2.555-1.613 4.034-4.437 4.034z"></path>
</svg>
