<!-- Generated by IcoMoon.io -->
<svg version="1.1" xmlns="http://www.w3.org/2000/svg" width="32" height="32" viewBox="0 0 32 32">
<title>remove</title>
<path d="M18.481 15.876l3.597-3.597c0.744-0.744 0.744-1.86 0-2.605s-1.86-0.744-2.605 0l-3.597 3.597-3.721-3.721c-0.744-0.744-1.86-0.744-2.605 0s-0.744 1.86 0 2.605l3.597 3.597-3.597 3.597c-0.744 0.744-0.744 1.86 0 2.605 0.372 0.372 0.868 0.496 1.364 0.496s0.992-0.124 1.364-0.496l3.597-3.597 3.597 3.597c0.372 0.372 0.868 0.496 1.364 0.496s0.992-0.124 1.364-0.496c0.744-0.744 0.744-1.86 0-2.605l-3.721-3.473z"></path>
</svg>
