<!-- Generated by IcoMoon.io -->
<svg version="1.1" xmlns="http://www.w3.org/2000/svg" width="32" height="32" viewBox="0 0 32 32">
<title>search</title>
<path d="M22.459 21.2l9.005 8.004c0.33 0.294 0.537 0.721 0.537 1.196 0 0.884-0.716 1.6-1.6 1.6-0.409 0-0.782-0.153-1.065-0.406l0.002 0.001-9.28-8.25c-2.022 1.411-4.53 2.254-7.236 2.254-0.007 0-0.015 0-0.022-0h0.001c-7.069 0-12.8-5.731-12.8-12.8s5.731-12.8 12.8-12.8 12.8 5.731 12.8 12.8c0 3.214-1.184 6.153-3.141 8.4zM12.8 22.4c5.302 0 9.6-4.298 9.6-9.6s-4.298-9.6-9.6-9.6v0c-5.302 0-9.6 4.298-9.6 9.6s4.298 9.6 9.6 9.6v0z"></path>
</svg>
