<!-- Generated by IcoMoon.io -->
<svg version="1.1" xmlns="http://www.w3.org/2000/svg" width="32" height="32" viewBox="0 0 32 32">
<title>upload</title>
<path d="M29.684 31.417c-0.062 0.014-0.133 0.021-0.206 0.021-0.002 0-0.003 0-0.005 0h-26.946c-0.001 0-0.003 0-0.005 0-0.073 0-0.144-0.008-0.213-0.023l0.007 0.001c-0.063 0.014-0.136 0.022-0.211 0.022-0.552 0-1-0.448-1-1v0-24.977c0-0.552 0.448-1 1-1s1 0.448 1 1v0 23.975h25.788v-23.973c0-0.552 0.448-1 1-1s1 0.448 1 1v0 24.975c0 0 0 0.001 0 0.001 0 0.552-0.448 1-1 1-0.075 0-0.147-0.008-0.217-0.024l0.007 0.001z"></path>
<path d="M14.667 4.683l-2.509 3.637c-0.184 0.245-0.475 0.402-0.802 0.402-0.552 0-1-0.448-1-1 0-0.199 0.058-0.385 0.159-0.541l-0.002 0.004 4.659-6.753c0.183-0.262 0.483-0.432 0.823-0.432 0.001 0 0.003 0 0.004 0h-0c0.001 0 0.002 0 0.004 0 0.34 0 0.64 0.17 0.821 0.429l0.002 0.003 4.66 6.752c0.116 0.161 0.186 0.363 0.186 0.58 0 0.552-0.448 1-1 1-0.346 0-0.651-0.175-0.83-0.442l-0.002-0.004-2.504-3.629v11.105c0 0.736-0.597 1.333-1.333 1.333s-1.333-0.597-1.333-1.333v0-11.112z"></path>
</svg>
