<!-- Generated by IcoMoon.io -->
<svg version="1.1" xmlns="http://www.w3.org/2000/svg" width="32" height="32" viewBox="0 0 32 32">
<title>user</title>
<path d="M16 29.867c7.658 0 13.867-6.208 13.867-13.867s-6.208-13.867-13.867-13.867c-7.658 0-13.867 6.208-13.867 13.867s6.208 13.867 13.867 13.867zM16 32c-8.837 0-16-7.163-16-16s7.163-16 16-16c8.837 0 16 7.163 16 16s-7.163 16-16 16z"></path>
<path d="M16 17.067c2.946 0 5.333-2.388 5.333-5.333s-2.388-5.333-5.333-5.333c-2.946 0-5.333 2.388-5.333 5.333s2.388 5.333 5.333 5.333zM16 19.2c-4.124 0-7.467-3.343-7.467-7.467s3.343-7.467 7.467-7.467c4.124 0 7.467 3.343 7.467 7.467s-3.343 7.467-7.467 7.467z"></path>
<path d="M15.849 19.467c-4.318 0-8.029 2.772-9.297 6.752 2.171 2.081 5.311 3.648 9.297 3.648 4.022 0 7.041-1.482 9.27-3.613-1.291-3.988-5-6.788-9.27-6.788zM15.849 32c-6.565 0-10.563-3.921-11.658-5.163 1.102-5.476 5.908-9.504 11.658-9.504 5.73 0 10.513 4.093 11.637 9.541-1.22 1.361-5.072 5.126-11.637 5.126z"></path>
</svg>
